<svg xmlns="http://www.w3.org/2000/svg" viewBox="0 0 300 300"><defs><style>.cls-1{fill:none;}.cls-1,.cls-3{stroke:#fff;stroke-miterlimit:10;}.cls-2{fill:#fdfdfd;}.cls-3{fill:#fff;}</style></defs><g id="Camada_5" data-name="Camada 5"><rect width="300" height="300"/></g><g id="Camada_2" data-name="Camada 2"><polyline class="cls-1" points="135.72 86.04 197.78 107.41 141.29 188.39 49.87 158.05 108.22 76.57 110.41 77.33"/><line class="cls-1" x1="127.54" y1="83.22" x2="131.08" y2="84.44"/></g><g id="Camada_3" data-name="Camada 3"><polyline class="cls-1" points="49.87 159.17 51.15 230.65 141.29 258.3 141.29 257 141.29 188.39 141.29 258.3 249.7 258.3 250.74 171.44 197.78 107.41"/></g><g id="Camada_6" data-name="Camada 6"><path class="cls-2" d="M154.77,110.48a1,1,0,0,0-1.89-.25c-2,7.54-4.33,11.13-7.09,13.91,3.79-7.73,3.1-16.06,2.43-24.18-.27-3.24-.54-6.58-.54-9.89a1,1,0,0,0-.3-.69,1,1,0,0,0-.71-.27A10.29,10.29,0,0,0,138.44,94a29.87,29.87,0,0,0-1-6.8,40.58,40.58,0,0,1-1.3-10,1,1,0,0,0-1.57-.75c-3.84,3.15-5,5.35-5.36,7.38a15.39,15.39,0,0,1-.62-6.34,36.85,36.85,0,0,0-2.46-15.91,13.39,13.39,0,0,0-1-1.74c-2-3.44-7.47-12.58-7.76-19a.94.94,0,0,0-.49-.8,1,1,0,0,0-.94,0c-6.24,3.53-5.1,11.57-4,19.35.83,5.83,1.61,11.33-.8,14.18-4.47,5.32-4.46,12-4.46,17.9,0,1.11,0,2.18,0,3.19A14.78,14.78,0,0,0,101,84.2a1,1,0,0,0-1-.1,1,1,0,0,0-.54.87c0,7.82-1.22,10.68-5.76,21.3-2.55,6-2.58,12.94-.09,17.39a24.49,24.49,0,0,1,1.12,2.25c-1.81-2.75-3.49-6.59-4.73-12.63a1,1,0,0,0-.87-.76,1,1,0,0,0-1,.62c-3.06,8.33-2,19.33,2.83,28.72,4.47,8.72,11.3,14.75,19.25,16.95l.07,0a49.57,49.57,0,0,0,9.63,1.18,40.18,40.18,0,0,0,10.6-1.69c10.86-3.06,17.29-9.35,22.17-21.7,2.58-6.53,2.39-13.69,2.19-20.63,0-1.81-.1-3.69-.1-5.52ZM111.05,157c-3-4.16-5-9.76-5.79-16.2a15.18,15.18,0,0,0,3.32,3.48c.37.32.76.64,1.15,1a1,1,0,0,0,1.33,0,1,1,0,0,0,0-1.33c-3.88-4.21-3.4-11-3-16.9.1-1.33.19-2.6.22-3.8,1,.6,1.77,2,2.4,4.11a5.67,5.67,0,0,0,.3,1.13c.15.58.27,1.22.39,1.89a1.3,1.3,0,0,0,.29.8,1,1,0,0,0,1,.27,1,1,0,0,0,.65-.87,5.33,5.33,0,0,0-.48-2.58.36.36,0,0,0,0-.09c-.07-.33-.16-.64-.25-.94-.09-1,.26-2.62,2.06-6.54a10.85,10.85,0,0,0,.91-4.39,12.29,12.29,0,0,1,1-4.76c.64-1.48,1.26-2.7,1.81-3.79a21.16,21.16,0,0,0,2.2-5.61c.83,1.27.88,3.17.87,5.79,0,3.21,0,6.84,2.11,10.19,1.5,2.35,1.61,5.21,1.7,7.73.08,2.32.17,4.51,1.35,6a.94.94,0,0,0,1.07.31,1,1,0,0,0,.65-.91c0-.25,0-.55,0-.85a9.29,9.29,0,0,1,.83-5.1c.27,2.58,1.07,4.46,2.82,8.57,1.06,2.48,1.11,5.45.12,7.23a13.73,13.73,0,0,0-.9,1.92,8.51,8.51,0,0,1-1.41,2.44,1,1,0,0,0,.09,1.31,1,1,0,0,0,1.31,0l.1-.1a13.57,13.57,0,0,0,4-5.36c.19,7-3.52,12.9-5.54,15.55-7.4,1.92-10.71,2-18.65.47Zm39.84-21.11c-4.2,10.65-9.59,16.52-18.17,19.67,2.64-4.14,5.87-11.27,3.78-19.31a1,1,0,0,0-1.85-.06,12.11,12.11,0,0,0-.9-3.41c-2.29-5.36-2.77-6.62-2.77-10.21a1,1,0,0,0-.54-.87,1,1,0,0,0-1,.1,7.24,7.24,0,0,0-2.25,2.81c-.11-2.55-.36-5.33-2-7.84-1.84-2.87-1.82-6.21-1.81-9.15,0-3.52,0-6.83-3.07-8.59a.93.93,0,0,0-.94,0,.94.94,0,0,0-.49.8c-.12,2.57-1,4.32-2.22,6.75-.57,1.1-1.2,2.36-1.86,3.89a14,14,0,0,0-1.14,5.43,9.18,9.18,0,0,1-.73,3.68,40.52,40.52,0,0,0-1.67,4.09c-1.22-2.06-2.64-2.66-3.84-2.71a.9.9,0,0,0-.7.26,1,1,0,0,0-.3.7c0,1.51-.12,3.18-.25,5-.28,4.06-.6,8.46.39,12.37a18.23,18.23,0,0,1-1.71-4.45,1,1,0,0,0-1.9.26c.09,8.16,1.9,15.49,5.15,21-6.3-2.56-11.71-7.81-15.43-15.06-3.92-7.66-5.25-16.41-3.72-23.69,2.53,9.29,6.22,12.62,9.53,15.61l.22.2a1,1,0,0,0,1.4-1.32,17.28,17.28,0,0,1-3-5.25,30.42,30.42,0,0,0-1.79-3.82c-2.18-3.88-2.1-10.33.19-15.68,4.13-9.67,5.64-13.21,5.88-19.94,3.91,4.11,3.69,9.54,3.53,13.27,0,.61,0,1.2,0,1.71a1,1,0,0,0,1.71.6c2.12-2.65,2.11-6.63,2.11-11.24,0-5.56,0-11.87,4-16.65,3-3.52,2.12-9.44,1.22-15.7C113,52.63,112,46,115.65,42.63c1,6.64,5.73,14.63,7.86,18.2.37.62.75,1.27.81,1.41a35.28,35.28,0,0,1,2.35,15.18c-.14,3.65-.25,6.53,2.67,10.67a1,1,0,0,0,1.75-.58c0-.3,0-.6,0-.89-.1-2.47-.17-4.2,3.21-7.35a44.18,44.18,0,0,0,1.3,8.4c.91,3.94,1.63,7.06-.08,13.28a1,1,0,0,0,1.65.89,1.69,1.69,0,0,0,.33-.77c1.57-5.87,4.43-9.27,8.31-9.91,0,3,.3,6,.54,9,.86,10.5,1.68,20.42-6.42,29.22a1,1,0,0,0,0,1.33,1,1,0,0,0,1.33,0c.82-.73,1.62-1.4,2.38-2,3.55-3,6.71-5.64,9.33-12.36.19,6.66.35,13.53-2.06,19.61Zm-50.62-53a1,1,0,0,0,.64.25.93.93,0,0,0,.34-.06,1,1,0,0,0,.62-.8,9.27,9.27,0,0,1,1.48-3.56c1.65-2.85,3.51-6.06-2.58-10.63a1,1,0,0,0-1.55.77A8.43,8.43,0,0,1,97.88,73c-1.37,2.55-2.8,5.19,2.39,9.9Zm-.69-9a12.93,12.93,0,0,0,1.36-3.19c3.15,2.87,2.12,4.66.75,7a16.58,16.58,0,0,0-1.3,2.56c-2.7-2.89-1.92-4.34-.8-6.41ZM87.86,111a1.27,1.27,0,0,0,.26,0,1,1,0,0,0,.7-.86,21.07,21.07,0,0,1,1.54-5.86c1.62-4.32,3.29-8.79-2.49-15.5a1,1,0,0,0-1.07-.28,1,1,0,0,0-.63.91,19.35,19.35,0,0,1-1.4,6.8c-1.34,3.86-2.61,7.5,2.3,14.42a1,1,0,0,0,.79.41Zm-1.27-14.2a25.82,25.82,0,0,0,1.31-4.86c3.22,4.74,2,8,.65,11.63a32.86,32.86,0,0,0-1.25,3.82c-2.75-4.75-1.83-7.37-.71-10.6Zm56.87-10.5a1,1,0,0,0,.74.89l.22,0a1,1,0,0,0,.84-.48c3.38-5.87,2.51-8.94,1.59-12.19a19.8,19.8,0,0,1-1-5.75,1,1,0,0,0-.68-.92.94.94,0,0,0-1.07.36c-4,5.7-2.84,9.47-1.73,13.12a20.71,20.71,0,0,1,1.05,4.94Zm.77-14.41A29.06,29.06,0,0,0,145,75c.71,2.51,1.3,4.6-.09,8q-.3-1.18-.66-2.31c-.87-2.86-1.63-5.4,0-8.9Zm-11.41,2.82a1,1,0,0,0,.67.84,1,1,0,0,0,.29,0,1,1,0,0,0,.74-.36c3.54-4.29,2.58-6.68,1.65-9a9.75,9.75,0,0,1-.94-3.86,1,1,0,0,0-1.65-.68c-4.17,4.18-2.91,7.1-1.8,9.67a10.51,10.51,0,0,1,1,3.31Zm.77-10a16.08,16.08,0,0,0,.79,2.29c.72,1.78,1.24,3.07-.13,5.35-.21-.61-.45-1.18-.69-1.71-.88-2-1.57-3.63,0-5.93ZM153.22,107a1,1,0,0,0,.67.84,1,1,0,0,0,.29,0,.94.94,0,0,0,.74-.35c6-7.28,4.45-11.13,2.81-15.19a18,18,0,0,1-1.7-7.12,1,1,0,0,0-1.66-.68c-7,7.06-5,11.77-3,16.33a19.54,19.54,0,0,1,1.87,6.12Zm1.05-19.49A22.7,22.7,0,0,0,156,93c1.45,3.6,2.54,6.29-1.18,11.53a28.69,28.69,0,0,0-1.65-4.48c-1.77-4.09-3.21-7.41,1.15-12.59Z"/></g><g id="Camada_7" data-name="Camada 7"><polyline class="cls-3" points="141.36 188.29 197.78 107.36 250.74 172.22 249.96 258.04 141.36 258.04"/></g></svg>